HIERARCHY
ROOT ui
{
	 OFFSET 0 0 0
	 CHANNELS 3 XPosition YPosition Z Position
	 EndSite
	 {
	 OFFSET 0 -1 0
	 }
}
ROOT li
{
	 OFFSET 0 0 0
	 CHANNELS 3 XPosition YPosition Z Position
	 EndSite
	 {
	 OFFSET 0 -1 0
	 }
}
ROOT ul
{
	 OFFSET 0 0 0
	 CHANNELS 3 XPosition YPosition Z Position
	 EndSite
	 {
	 OFFSET 0 -1 0
	 }
}
ROOT ll
{
	 OFFSET 0 0 0
	 CHANNELS 3 XPosition YPosition Z Position
	 EndSite
	 {
	 OFFSET 0 -1 0
	 }
}
ROOT tt
{
	 OFFSET 0 0 0
	 CHANNELS 3 XPosition YPosition Z Position
	 EndSite
	 {
	 OFFSET 0 -1 0
	 }
}
ROOT tb
{
	 OFFSET 0 0 0
	 CHANNELS 3 XPosition YPosition Z Position
	 EndSite
	 {
	 OFFSET 0 -1 0
	 }
}
ROOT td
{
	 OFFSET 0 0 0
	 CHANNELS 3 XPosition YPosition Z Position
	 EndSite
	 {
	 OFFSET 0 -1 0
	 }
}
ROOT v
{
	 OFFSET 0 0 0
	 CHANNELS 3 XPosition YPosition Z Position
	 EndSite
	 {
	 OFFSET 0 -1 0
	 }
}
ROOT bn
{
	 OFFSET 0 0 0
	 CHANNELS 3 XPosition YPosition Z Position
	 EndSite
	 {
	 OFFSET 0 -1 0
	 }
}
MOTION
Frames: 29
Frame Time: 0.002
-0.0011003210544586182	7.406920194625854E-4	0		0.4355789794921875	-2.505917724609375	0		-1.05560498046875	0.04693471908569336	0		-0.8493712768554688	-2.57385009765625	0		1.3223131103515624	-0.8538802490234375	0		3.1597001953125	-0.27481817626953126	0		4.22752197265625	-0.1237735824584961	0		5.55096728515625	0.1313021240234375	0		-0.17084248352050782	5.93832861328125	0		
0.001624006986618042	0.003553133010864258	0		0.44422335815429687	-2.514169189453125	0		-1.0559189453125	0.046760505676269534	0		-0.7767053833007812	-2.580930419921875	0		1.3220198974609374	-0.8539995727539063	0		3.16345556640625	-0.2699454040527344	0		4.22720849609375	-0.12383390808105468	0		5.54656396484375	0.12433091735839844	0		-0.17129244995117188	5.9381748046875	0		
-0.0017372349500656128	4.4908899068832396E-4	0		0.43505575561523435	-2.506189453125	0		-1.095240966796875	0.04708134460449219	0		-0.8389920043945313	-2.582316650390625	0		1.3217149658203124	-0.85411181640625	0		3.137177001953125	-0.26669281005859374	0		4.2268837890625	-0.12388922882080078	0		5.5462373046875	0.12431278991699218	0		-0.03945989227294922	5.96038232421875	0		
-0.051020790100097656	0.004926640987396241	0		0.4187369079589844	-2.509112548828125	0		-1.078655029296875	0.040714824676513675	0		-0.8012885131835937	-2.583939208984375	0		1.3264830322265626	-0.8472776489257813	0		3.148770263671875	-0.2729053649902344	0		4.231458984375	-0.13099859619140625	0		5.5399853515625	0.13137538146972655	0		-0.20628659057617188	5.9323173828125	0		
0.017587352752685546	9.482250213623046E-4	0		0.44945001220703124	-2.508609375	0		-1.0268724365234374	0.050925079345703124	0		-0.8334944458007812	-2.576679443359375	0		1.3291885986328125	-0.8444080810546875	0		3.165537109375	-0.2641722106933594	0		4.2382451171875	-0.12012610626220703	0		5.5545205078125	0.12218459320068359	0		-0.15558935546875	5.9455576171875	0		
2.570129930973053E-4	0.0030504419803619384	0		0.43619308471679685	-2.504548583984375	0		-0.9762586059570313	0.04816395568847656	0		-0.764929931640625	-2.587659423828125	0		1.3207252197265624	-0.8543909912109375	0		3.15621142578125	-0.2621078186035156	0		4.233826171875	-0.1251091079711914	0		5.5492734375	0.13124539184570314	0		-0.20723139953613282	5.93207958984375	0		
-1.0037200152873992E-4	0.002953339099884033	0		0.43385552978515624	-2.506613037109375	0		-1.0526109619140624	0.048990703582763674	0		-0.814126220703125	-2.5781640625	0		1.3203829345703124	-0.8544647216796875	0		3.13579833984375	-0.26690097045898437	0		4.2254814453125	-0.12403842163085937	0		5.54482763671875	0.12429666900634766	0		-0.1887572021484375	5.92674365234375	0		
0.006398344039916992	-0.00921827793121338	0		0.44244281005859376	-2.514802978515625	0		-1.058000732421875	0.04595034408569336	0		-0.8035379638671875	-2.586398193359375	0		1.3200440673828124	-0.8545299682617188	0		3.140350830078125	-0.27499908447265625	0		4.22512890625	-0.12406374359130859	0		5.524474609375	0.1245448226928711	0		-0.17406730651855468	5.93746875	0		
-7.947199940681458E-4	0.0027920811176300048	0		0.4171982421875	-2.509563720703125	0		-1.086353515625	0.04520686721801758	0		-0.8387808227539062	-2.58105224609375	0		1.3247996826171875	-0.84764990234375	0		3.15701123046875	-0.27524227905273435	0		4.2297001953125	-0.1311483154296875	0		5.52921728515625	0.13148129272460937	0		-0.1744888916015625	5.93739111328125	0		
0.00292733097076416	0.00667763614654541	0		0.4458844909667969	-2.510981689453125	0		-1.0536341552734374	0.04872245025634766	0		-0.801094482421875	-2.58259521484375	0		1.327518798828125	-0.8447372436523437	0		3.15078662109375	-0.26719866943359377	0		4.2315947265625	-0.11319619750976563	0		5.528888671875	0.13147772216796874	0		-0.19381842041015626	5.94255859375	0		
0.008458499908447265	-0.006449760913848877	0		0.41457595825195315	-2.51264990234375	0		-1.053942626953125	0.04865891647338867	0		-0.803404541015625	-2.5846318359375	0		1.3211446533203124	-0.8507056884765625	0		3.160443115234375	-0.270348876953125	0		4.228224609375	-0.1181795654296875	0		5.547578125	0.1312368927001953	0		-0.17524102783203124	5.93726806640625	0		
-0.0017154799699783325	0.0026283719539642336	0		0.4593519592285156	-2.509246826171875	0		-0.9822833862304687	0.04372040557861328	0		-0.81559912109375	-2.578533935546875	0		1.3188150634765625	-0.8547169189453125	0		3.1601591796875	-0.27037347412109375	0		4.2287783203125	-0.13121098327636718	0		5.54240283203125	0.14028829956054686	0		-0.20963555908203124	5.93164208984375	0		
-0.0019766210317611692	0.002593189001083374	0		0.40516683959960936	-2.503614990234375	0		-1.0985235595703124	0.046110755920410154	0		-0.8049491577148438	-2.586707275390625	0		1.3185574951171875	-0.8547467041015625	0		3.149936767578125	-0.267272705078125	0		4.22360400390625	-0.124169189453125	0		5.54294384765625	0.12426470947265625	0		-0.17584962463378906	5.93718701171875	0		
0.007677157878875732	-0.006555728912353516	0		0.4428239440917969	-2.51310791015625	0		-1.08183349609375	0.039872966766357425	0		-0.8380892944335937	-2.579329345703125	0		1.3264473876953125	-0.8448695068359375	0		3.1337041015625	-0.2670950622558594	0		4.219357421875	-0.12513775634765625	0		5.52779638671875	0.13143470764160156	0		-0.17510951232910157	5.93614794921875	0		
0.01455631923675537	3.3947500586509703E-4	0		0.42173138427734375	-2.50386767578125	0		-1.029908447265625	0.05021273803710938	0		-0.7982850341796875	-2.5788408203125	0		1.3262413330078124	-0.84488671875	0		3.168433349609375	-0.27254205322265623	0		4.240125	-0.12741204071044923	0		5.54658837890625	0.1311859130859375	0		-0.15920997619628907	5.944931640625	0		
-0.0025963389873504637	0.0025390360355377196	0		0.46051116943359377	-2.507358154296875	0		-1.0551097412109376	0.048511890411376955	0		-0.8404991455078125	-2.581332275390625	0		1.31998876953125	-0.850822998046875	0		3.13638037109375	-0.262160400390625	0		4.230119140625	-0.11330227661132812	0		5.53641064453125	0.13129562377929688	0		-0.17549423217773438	5.9361201171875	0		
0.007139573097229004	-0.006584821224212646	0		0.4313565368652344	-2.507002685546875	0		-1.0602987060546876	0.04557429504394531	0		-0.7697600708007812	-2.59020654296875	0		1.31778564453125	-0.8548016967773437	0		3.149164794921875	-0.26732708740234373	0		4.22283203125	-0.12422332763671876	0		5.542171875	0.12421112823486329	0		-0.17662376403808594	5.93713134765625	0		
-0.002877964973449707	0.0025452919006347654	0		0.431220458984375	-2.506996337890625	0		-1.060427734375	0.04558474349975586	0		-0.84281689453125	-2.58329736328125	0		1.317654052734375	-0.8547977294921875	0		3.12195068359375	-0.27399478149414064	0		4.2276162109375	-0.1312874755859375	0		5.5320439453125	0.1243267822265625	0		-0.1767367401123047	5.93713916015625	0		
-0.0029874711036682127	0.0025623629093170165	0		0.4150661315917969	-2.509783447265625	0		-1.0495626220703125	0.04347014236450195	0		-0.804950927734375	-2.584745849609375	0		1.32262744140625	-0.8478475952148438	0		3.1548251953125	-0.2753957824707031	0		4.2275068359375	-0.1312843780517578	0		5.5319345703125	0.12432392883300782	0		-0.20990869140625	5.930564453125	0		
-0.0030806639194488525	0.0025895400047302244	0		0.4439476623535156	-2.51111572265625	0		-1.055593505859375	0.04857542037963867	0		-0.8369664306640625	-2.577321044921875	0		1.3255673828125	-0.8448633422851562	0		3.135892578125	-0.26214874267578125	0		4.22657421875	-0.11826243591308594	0		5.53592822265625	0.13127757263183593	0		-0.2099765319824219	5.93059228515625	0		
-0.0031603438854217528	0.0026269121170043944	0		0.44183200073242185	-2.513055419921875	0		-1.0556729736328125	0.04861758804321289	0		-0.7790869140625	-2.579995361328125	0		1.317361083984375	-0.8547325439453125	0		3.15464990234375	-0.275359130859375	0		4.2224208984375	-0.12419293212890625	0		5.54584814453125	0.13116630554199218	0		-0.17694534301757814	5.93722314453125	0		
-0.0032285408973693848	0.0026739170551300048	0		0.4308280334472656	-2.506875	0		-1.060777587890625	0.045730995178222655	0		-0.8062504272460937	-2.586611328125	0		1.3172891845703125	-0.854691162109375	0		3.1486796875	-0.2672520446777344	0		4.2223525390625	-0.12416234588623047	0		5.5416943359375	0.12423972320556641	0		-0.19212303161621094	5.92645703125	0		
0.006601466178894043	-0.006393305778503418	0		0.4396625366210937	-2.514931396484375	0		-1.0608355712890625	0.04578989410400391	0		-0.7703565063476563	-2.58999755859375	0		1.3172283935546876	-0.8546397705078125	0		3.1156357421875	-0.2657991027832031	0		4.2272080078125	-0.13118023681640625	0		5.5316376953125	0.12440122985839844	0		-0.21011167907714845	5.93073486328125	0		
-0.003335886001586914	0.0027924039363861086	0		0.41467398071289063	-2.509560546875	0		-1.0829571533203124	0.04012618255615234	0		-0.839280029296875	-2.579082275390625	0		1.32226416015625	-0.847640625	0		3.161607421875	-0.2643079833984375	0		4.2342939453125	-0.12020915222167969	0		5.545673828125	0.1312842254638672	0		-0.17410726928710937	5.93435302734375	0		
0.01763286018371582	0.003602346897125244	0		0.4456465759277344	-2.508873291015625	0		-1.0459033203125	0.047736072540283205	0		-0.7993079833984374	-2.578508544921875	0		1.3252606201171875	-0.844606201171875	0		3.135592529296875	-0.2619120483398438	0		4.2301904296875	-0.1250829620361328	0		5.54563134765625	0.13136370849609375	0		-0.1761353302001953	5.93644677734375	0		
0.006472623825073242	-0.006186441898345947	0		0.40471319580078124	-2.501290771484375	0		-1.0559281005859376	0.04892784881591797	0		-0.805404052734375	-2.5843642578125	0		1.3171051025390625	-0.85442431640625	0		3.137395751953125	-0.2748426818847656	0		4.2270791015625	-0.13094805908203125	0		5.5315078125	0.12464421844482422	0		-0.05806879425048828	5.9470634765625	0		
-0.00345369291305542	0.003015036106109619	0		0.45761129760742186	-2.508860595703125	0		-0.9840215454101563	0.04410802841186524	0		-0.8064393310546875	-2.586281494140625	0		1.3170760498046874	-0.85433154296875	0		3.137360595703125	-0.2747306213378906	0		4.222126953125	-0.12376700592041015	0		5.5414677734375	0.12465841674804687	0		-0.19144346618652344	5.925783203125	0		
-0.046593070983886715	-0.0043728499412536625	0		0.41256036376953126	-2.512217041015625	0		-1.0610482177734375	0.04612289810180664	0		-0.8064432373046875	-2.5862119140625	0		1.3170452880859376	-0.85422900390625	0		3.154319580078125	-0.27480914306640625	0		4.22699609375	-0.13068582153320313	0		5.5265087890625	0.13201075744628907	0		-0.17545770263671875	5.93566455078125	0		
0.006337611198425293	-0.00594047212600708	0		0.4415562438964844	-2.512480224609375	0		-1.04417724609375	0.03997755432128906	0		-0.8413795166015625	-2.580713623046875	0		1.32209521484375	-0.8471793823242187	0		3.148370849609375	-0.2665869140625	0		4.23001611328125	-0.12455935668945313	0		5.53545263671875	0.13209751892089844	0		-0.21069056701660155	5.93117626953125	0		
